# xmcd
#
# Track frame offsets:
#	182
#	14100
#	24357
#	34507
#	47087
#	55832
#	69230
#	82270
#	89577
#	100500
#	111660
#	121635
#
# Disc length: 1778 seconds
#
# Revision: 1
# Processed by: cddbd v1.4PL0 Copyright (c) Steve Scherf et al.
# Submitted via: EasyCDDAExtractor 6.0.0.1
#
DISCID=9806f00c
DTITLE=Barbara Mandrell - Try To Remember
DYEAR=1900
DGENRE=Country
TTITLE0=Try To Remember
TTITLE1=Please Release Me
TTITLE2=Kawliga
TTITLE3=Moma Don't 'Low No Music
TTITLE4=I Gave My Love To A Railroad
TTITLE5=Lilies Grow High
TTITLE6=Don't Touch Me
TTITLE7=Kentucky Means Paradise
TTITLE8=Wayward Wind
TTITLE9=Just A Picking
TTITLE10=Right
TTITLE11=Give A Little
EXTD=
EXTT0=
EXTT1=
EXTT2=
EXTT3=
EXTT4=
EXTT5=
EXTT6=
EXTT7=
EXTT8=
EXTT9=
EXTT10=
EXTT11=
PLAYORDER=
